<svg width="24" height="24" viewBox="0 0 24 24" fill="none" xmlns="http://www.w3.org/2000/svg">
<path fill-rule="evenodd" clip-rule="evenodd" d="M11 13C11 13.55 11.45 14 12 14C12.55 14 13 13.55 13 13V11C13 10.45 12.55 10 12 10C11.45 10 11 10.45 11 11V13ZM11 18H13V16H11V18Z" fill="white"/>
<path fill-rule="evenodd" clip-rule="evenodd" d="M4.47012 21.0075H19.5301C21.0701 21.0075 22.0301 19.3375 21.2601 18.0075L13.7301 4.9975C12.9601 3.6675 11.0401 3.6675 10.2701 4.9975L2.74012 18.0075C1.97012 19.3375 2.93012 21.0075 4.47012 21.0075ZM12.0001 14.0075C11.4501 14.0075 11.0001 13.5575 11.0001 13.0075V11.0075C11.0001 10.4575 11.4501 10.0075 12.0001 10.0075C12.5501 10.0075 13.0001 10.4575 13.0001 11.0075V13.0075C13.0001 13.5575 12.5501 14.0075 12.0001 14.0075ZM13.0001 18.0075H11.0001V16.0075H13.0001V18.0075Z" fill="#F5A200"/>
</svg>
