<svg xmlns="http://www.w3.org/2000/svg" xmlns:xlink="http://www.w3.org/1999/xlink" width="24" height="24" viewBox="0 0 24 24"><defs><style>.a,.c{fill:#0091a7;}.a{stroke:#707070;}.b{clip-path:url(#a);}</style><clipPath id="a"><rect class="a" width="24" height="24" transform="translate(35 730)"/></clipPath></defs><g class="b" transform="translate(-35 -730)"><g transform="translate(35 730)"><path class="c" d="M23.7,11.719a1.144,1.144,0,0,0-.094-1.638L12.88.7a1.337,1.337,0,0,0-1.744.02L.373,10.582a1.138,1.138,0,0,0-.052,1.635l.27.281a1.177,1.177,0,0,0,1.615.124l.8-.72V22.447a1.171,1.171,0,0,0,1.171,1.171h4.2a1.171,1.171,0,0,0,1.171-1.171V15.069H14.9v7.377a1.106,1.106,0,0,0,1.1,1.17h4.446a1.171,1.171,0,0,0,1.171-1.171V12.05l.5.436c.274.24.848.048,1.283-.431Z"/></g></g></svg>